<?xml version="1.0" encoding="UTF-8" standalone="no"?>
<svg
   version="1.1"
   width="512"
   height="513"
   id="svg16"
   sodipodi:docname="v-profiles.svg"
   inkscape:version="1.1.2 (0a00cf5339, 2022-02-04)"
   xmlns:inkscape="http://www.inkscape.org/namespaces/inkscape"
   xmlns:sodipodi="http://sodipodi.sourceforge.net/DTD/sodipodi-0.dtd"
   xmlns="http://www.w3.org/2000/svg"
   xmlns:svg="http://www.w3.org/2000/svg">
  <defs
     id="defs20">
    <filter
       inkscape:label="Channel Transparency"
       style="color-interpolation-filters:sRGB;"
       id="filter1034"
       x="0"
       y="0"
       width="1"
       height="1">
      <feColorMatrix
         values="1 0 0 0 0 0 1 0 0 0 0 0 1 0 0 10 10 10 10 0 "
         in="SourceGraphic"
         result="colormatrix"
         id="feColorMatrix1030" />
      <feComposite
         in="colormatrix"
         in2="SourceGraphic"
         operator="in"
         result="fbSourceGraphic"
         id="feComposite1032" />
      <feColorMatrix
         result="fbSourceGraphicAlpha"
         in="fbSourceGraphic"
         values="0 0 0 -1 0 0 0 0 -1 0 0 0 0 -1 0 0 0 0 1 0"
         id="feColorMatrix1090" />
      <feColorMatrix
         id="feColorMatrix1092"
         values="1 0 0 0 0 0 1 0 0 0 0 0 1 0 0 10 10 10 10 0 "
         in="fbSourceGraphic"
         result="colormatrix" />
      <feComposite
         in2="fbSourceGraphic"
         id="feComposite1094"
         in="colormatrix"
         operator="in"
         result="composite1" />
    </filter>
    <filter
       inkscape:label="Channel Transparency"
       style="color-interpolation-filters:sRGB;"
       id="filter1040"
       x="0"
       y="0"
       width="1"
       height="1">
      <feColorMatrix
         values="1 0 0 0 0 0 1 0 0 0 0 0 1 0 0 10 10 10 10 0 "
         in="SourceGraphic"
         result="colormatrix"
         id="feColorMatrix1036" />
      <feComposite
         in="colormatrix"
         in2="SourceGraphic"
         operator="in"
         result="fbSourceGraphic"
         id="feComposite1038" />
      <feColorMatrix
         result="fbSourceGraphicAlpha"
         in="fbSourceGraphic"
         values="0 0 0 -1 0 0 0 0 -1 0 0 0 0 -1 0 0 0 0 1 0"
         id="feColorMatrix1096" />
      <feColorMatrix
         id="feColorMatrix1098"
         values="1 0 0 0 0 0 1 0 0 0 0 0 1 0 0 10 10 10 10 0 "
         in="fbSourceGraphic"
         result="colormatrix" />
      <feComposite
         in2="fbSourceGraphic"
         id="feComposite1100"
         in="colormatrix"
         operator="in"
         result="composite1" />
    </filter>
    <filter
       inkscape:label="Channel Transparency"
       style="color-interpolation-filters:sRGB;"
       id="filter1046"
       x="0"
       y="0"
       width="1"
       height="1">
      <feColorMatrix
         values="1 0 0 0 0 0 1 0 0 0 0 0 1 0 0 10 10 10 10 0 "
         in="SourceGraphic"
         result="colormatrix"
         id="feColorMatrix1042" />
      <feComposite
         in="colormatrix"
         in2="SourceGraphic"
         operator="in"
         result="fbSourceGraphic"
         id="feComposite1044" />
      <feColorMatrix
         result="fbSourceGraphicAlpha"
         in="fbSourceGraphic"
         values="0 0 0 -1 0 0 0 0 -1 0 0 0 0 -1 0 0 0 0 1 0"
         id="feColorMatrix1102" />
      <feColorMatrix
         id="feColorMatrix1104"
         values="1 0 0 0 0 0 1 0 0 0 0 0 1 0 0 10 10 10 10 0 "
         in="fbSourceGraphic"
         result="colormatrix" />
      <feComposite
         in2="fbSourceGraphic"
         id="feComposite1106"
         in="colormatrix"
         operator="in"
         result="composite1" />
    </filter>
    <filter
       inkscape:label="Channel Transparency"
       style="color-interpolation-filters:sRGB;"
       id="filter1052"
       x="0"
       y="0"
       width="1"
       height="1">
      <feColorMatrix
         values="1 0 0 0 0 0 1 0 0 0 0 0 1 0 0 10 10 10 10 0 "
         in="SourceGraphic"
         result="colormatrix"
         id="feColorMatrix1048" />
      <feComposite
         in="colormatrix"
         in2="SourceGraphic"
         operator="in"
         result="fbSourceGraphic"
         id="feComposite1050" />
      <feColorMatrix
         result="fbSourceGraphicAlpha"
         in="fbSourceGraphic"
         values="0 0 0 -1 0 0 0 0 -1 0 0 0 0 -1 0 0 0 0 1 0"
         id="feColorMatrix1108" />
      <feColorMatrix
         id="feColorMatrix1110"
         values="1 0 0 0 0 0 1 0 0 0 0 0 1 0 0 10 10 10 10 0 "
         in="fbSourceGraphic"
         result="colormatrix" />
      <feComposite
         in2="fbSourceGraphic"
         id="feComposite1112"
         in="colormatrix"
         operator="in"
         result="composite1" />
    </filter>
    <filter
       inkscape:label="Channel Transparency"
       style="color-interpolation-filters:sRGB;"
       id="filter1058"
       x="0"
       y="0"
       width="1"
       height="1">
      <feColorMatrix
         values="1 0 0 0 0 0 1 0 0 0 0 0 1 0 0 10 10 10 10 0 "
         in="SourceGraphic"
         result="colormatrix"
         id="feColorMatrix1054" />
      <feComposite
         in="colormatrix"
         in2="SourceGraphic"
         operator="in"
         result="fbSourceGraphic"
         id="feComposite1056" />
      <feColorMatrix
         result="fbSourceGraphicAlpha"
         in="fbSourceGraphic"
         values="0 0 0 -1 0 0 0 0 -1 0 0 0 0 -1 0 0 0 0 1 0"
         id="feColorMatrix1114" />
      <feColorMatrix
         id="feColorMatrix1116"
         values="1 0 0 0 0 0 1 0 0 0 0 0 1 0 0 10 10 10 10 0 "
         in="fbSourceGraphic"
         result="colormatrix" />
      <feComposite
         in2="fbSourceGraphic"
         id="feComposite1118"
         in="colormatrix"
         operator="in"
         result="composite1" />
    </filter>
    <filter
       inkscape:label="Channel Transparency"
       style="color-interpolation-filters:sRGB;"
       id="filter1064"
       x="0"
       y="0"
       width="1"
       height="1">
      <feColorMatrix
         values="1 0 0 0 0 0 1 0 0 0 0 0 1 0 0 10 10 10 10 0 "
         in="SourceGraphic"
         result="colormatrix"
         id="feColorMatrix1060" />
      <feComposite
         in="colormatrix"
         in2="SourceGraphic"
         operator="in"
         result="fbSourceGraphic"
         id="feComposite1062" />
      <feColorMatrix
         result="fbSourceGraphicAlpha"
         in="fbSourceGraphic"
         values="0 0 0 -1 0 0 0 0 -1 0 0 0 0 -1 0 0 0 0 1 0"
         id="feColorMatrix1120" />
      <feColorMatrix
         id="feColorMatrix1122"
         values="1 0 0 0 0 0 1 0 0 0 0 0 1 0 0 10 10 10 10 0 "
         in="fbSourceGraphic"
         result="colormatrix" />
      <feComposite
         in2="fbSourceGraphic"
         id="feComposite1124"
         in="colormatrix"
         operator="in"
         result="composite1" />
    </filter>
    <filter
       inkscape:label="Channel Transparency"
       style="color-interpolation-filters:sRGB;"
       id="filter1070"
       x="0"
       y="0"
       width="1"
       height="1">
      <feColorMatrix
         values="1 0 0 0 0 0 1 0 0 0 0 0 1 0 0 10 10 10 10 0 "
         in="SourceGraphic"
         result="colormatrix"
         id="feColorMatrix1066" />
      <feComposite
         in="colormatrix"
         in2="SourceGraphic"
         operator="in"
         result="fbSourceGraphic"
         id="feComposite1068" />
      <feColorMatrix
         result="fbSourceGraphicAlpha"
         in="fbSourceGraphic"
         values="0 0 0 -1 0 0 0 0 -1 0 0 0 0 -1 0 0 0 0 1 0"
         id="feColorMatrix1126" />
      <feColorMatrix
         id="feColorMatrix1128"
         values="1 0 0 0 0 0 1 0 0 0 0 0 1 0 0 10 10 10 10 0 "
         in="fbSourceGraphic"
         result="colormatrix" />
      <feComposite
         in2="fbSourceGraphic"
         id="feComposite1130"
         in="colormatrix"
         operator="in"
         result="composite1" />
    </filter>
  </defs>
  <sodipodi:namedview
     id="namedview18"
     pagecolor="#ffffff"
     bordercolor="#666666"
     borderopacity="1.0"
     inkscape:pageshadow="2"
     inkscape:pageopacity="0.0"
     inkscape:pagecheckerboard="0"
     showgrid="false"
     inkscape:zoom="1.4015595"
     inkscape:cx="255.78651"
     inkscape:cy="256.14325"
     inkscape:window-width="1920"
     inkscape:window-height="1163"
     inkscape:window-x="0"
     inkscape:window-y="0"
     inkscape:window-maximized="1"
     inkscape:current-layer="svg16" />
  <path
     d="M0 0 C1.62281293 -0.00373909 3.24562406 -0.00834164 4.86843234 -0.01373065 C9.3175004 -0.02594422 13.76649316 -0.02570211 18.21557415 -0.02334189 C23.01805645 -0.02293331 27.82051475 -0.03397688 32.62298584 -0.04345703 C42.02838726 -0.06005924 51.43376361 -0.06556624 60.83917847 -0.06668179 C68.48619149 -0.06763268 76.13319626 -0.07174502 83.78020668 -0.07808304 C105.47007826 -0.0956937 127.15993006 -0.10492224 148.84980883 -0.10342209 C150.01874646 -0.10334218 151.18768409 -0.10326227 152.39204407 -0.10317993 C153.56241224 -0.10309817 154.73278041 -0.10301641 155.93861429 -0.10293217 C174.90214611 -0.10211943 193.86559847 -0.12125458 212.82910731 -0.14945666 C232.30971279 -0.17819869 251.79027953 -0.19199622 271.27090675 -0.19026911 C282.20414416 -0.18960564 293.13729829 -0.195079 304.07051659 -0.21662521 C313.38010277 -0.23485438 322.68956792 -0.23917009 331.99916425 -0.22560637 C336.74611472 -0.21908538 341.49283309 -0.21892808 346.23976135 -0.23631287 C350.59184203 -0.25208719 354.94350741 -0.24913569 359.29557822 -0.2317446 C360.86352959 -0.22868427 362.43151229 -0.23227039 363.99942669 -0.24346475 C383.14976293 -0.37105217 398.70563679 5.69356266 412.72871399 18.84164429 C426.63361892 32.61915443 436.48572155 53.76232099 437.29648 73.38474208 C437.29916286 75.06712994 437.29916286 75.06712994 437.30189991 76.78350544 C437.30635775 78.0842744 437.3108156 79.38504336 437.31540853 80.72522956 C437.31531924 82.16184637 437.31512941 83.59846317 437.31484985 85.03507996 C437.31815115 86.56669399 437.32187728 88.09830716 437.32599133 89.62991923 C437.33598948 93.83633106 437.33972461 98.04272861 437.34238064 102.24915063 C437.34629028 106.78725117 437.35586826 111.32534048 437.36459351 115.86343384 C437.38434093 126.822919 437.39442266 137.78240507 437.4033213 148.74190357 C437.40770766 153.90747721 437.41307362 159.07304983 437.41831017 164.23862267 C437.43532193 181.4187095 437.44981449 198.5987957 437.45705891 215.77888966 C437.4589687 220.23559889 437.46088904 224.69230812 437.46284485 229.14901733 C437.46332859 230.25666436 437.46381233 231.36431138 437.46431073 232.50552347 C437.472605 250.43506706 437.49793199 268.36454381 437.53042553 286.29405824 C437.5635399 304.71692378 437.58151169 323.13975541 437.58470315 341.56265086 C437.58686436 351.90025172 437.59555581 362.23775514 437.62116432 372.57532692 C437.64293132 381.38235484 437.65089238 390.18926166 437.64119754 398.99631343 C437.63666997 403.48452146 437.63844849 407.97247993 437.65795898 412.46065331 C437.67571505 416.58110305 437.6744935 420.70112349 437.65906169 424.82157858 C437.6567043 426.30083583 437.66091037 427.78012381 437.67289034 429.25933442 C437.7880314 444.43387692 434.79096673 458.53384327 428.16767883 472.26742554 C427.75002258 473.1659021 427.33236633 474.06437866 426.90205383 474.99008179 C418.3605999 492.04844524 404.04776411 504.61690601 386.16767883 511.26742554 C378.3464895 513.84409648 370.47748698 513.55261903 362.33535767 513.53485107 C360.71254474 513.53859016 359.08973361 513.54319271 357.46692532 513.54858172 C353.01785727 513.56079529 348.56886451 513.56055319 344.11978352 513.55819297 C339.31730121 513.55778438 334.51484291 513.56882796 329.71237183 513.57830811 C320.3069704 513.59491032 310.90159405 513.60041731 301.4961792 513.60153286 C293.84916617 513.60248375 286.2021614 513.60659609 278.55515099 513.61293411 C256.86527941 513.63054478 235.17542761 513.63977331 213.48554883 513.63827316 C212.3166112 513.63819325 211.14767358 513.63811334 209.9433136 513.63803101 C208.77294543 513.63794924 207.60257725 513.63786748 206.39674338 513.63778324 C187.43321156 513.6369705 168.4697592 513.65610566 149.50625036 513.68430774 C130.02564488 513.71304976 110.54507814 513.72684729 91.06445092 513.72512019 C80.1312135 513.72445672 69.19805938 513.72993007 58.26484108 513.75147629 C48.95525489 513.76970545 39.64578975 513.77402117 30.33619342 513.76045744 C25.58924295 513.75393645 20.84252457 513.75377916 16.09559631 513.77116394 C11.74351564 513.78693826 7.39185026 513.78398676 3.03977945 513.76659568 C1.47182808 513.76353534 -0.09615462 513.76712146 -1.66406902 513.77831583 C-21.30694188 513.90918473 -37.08711618 507.39791237 -51.29081726 493.84750366 C-65.51034239 479.2721526 -74.93416326 457.0558325 -74.96654224 436.75134563 C-74.97322901 434.80019219 -74.97322901 434.80019219 -74.98005086 432.80962151 C-74.97996158 431.37300471 -74.97977175 429.9363879 -74.97949219 428.49977112 C-74.98279349 426.96815708 -74.98651962 425.43654391 -74.99063367 423.90493184 C-75.00063181 419.69852002 -75.00436695 415.49212246 -75.00702298 411.28570044 C-75.01093261 406.7475999 -75.02051059 402.20951059 -75.02923584 397.67141724 C-75.04898327 386.71193207 -75.059065 375.75244601 -75.06796363 364.7929475 C-75.07234999 359.62737386 -75.07771596 354.46180124 -75.0829525 349.29622841 C-75.09996426 332.11614158 -75.11445682 314.93605538 -75.12170124 297.75596142 C-75.12361103 293.29925218 -75.12553138 288.84254295 -75.12748718 284.38583374 C-75.12797092 283.27818672 -75.12845466 282.17053969 -75.12895306 281.02932761 C-75.13724734 263.09978401 -75.16257432 245.17030726 -75.19506786 227.24079283 C-75.22818224 208.81792729 -75.24615402 190.39509567 -75.24934548 171.97220021 C-75.25150669 161.63459936 -75.26019815 151.29709593 -75.28580666 140.95952415 C-75.30757365 132.15249623 -75.31553472 123.34558942 -75.30583987 114.53853764 C-75.3013123 110.05032962 -75.30309082 105.56237115 -75.32260132 101.07419777 C-75.34035739 96.95374802 -75.33913583 92.83372758 -75.32370403 88.71327249 C-75.32134664 87.23401524 -75.32555271 85.75472727 -75.33753268 84.27551665 C-75.45267373 69.10097415 -72.45560907 55.0010078 -65.83232117 41.26742554 C-65.41466492 40.36894897 -64.99700867 39.47047241 -64.56669617 38.54476929 C-56.02524224 21.48640584 -41.71240644 8.91794506 -23.83232117 2.26742554 C-16.01113183 -0.3092454 -8.14212932 -0.01776795 0 0 Z "
     fill="#43EAB3"
     transform="translate(74.83232116699219,-0.267425537109375)"
     id="path2"
     style="filter:url(#filter1070)" />
  <path
     d="M0 0 C36.46892751 0 66.50213049 0.27409622 92.75 25.375 C104.97879888 38.16853915 112.30149616 53.84479291 116 71 C116.18949219 71.80050781 116.37898438 72.60101563 116.57421875 73.42578125 C120.28992579 95.89046877 112.84082121 118.42888374 100.1875 136.8125 C89.01975307 151.27635864 76.0544357 160.67130479 59 167 C56.525 167.99 56.525 167.99 54 169 C36.23273584 171.96121069 18.01234145 171 0 171 C0 114.57 0 58.14 0 0 Z "
     fill="#43EAB3"
     transform="translate(351,127)"
     id="path4"
     style="filter:url(#filter1064)" />
  <path
     d="M0 0 C5.63490544 -0.11626352 11.26547447 -0.21533073 16.90063477 -0.2746582 C18.80800651 -0.29944588 20.7152871 -0.33328709 22.62231445 -0.37719727 C48.35232653 -0.95379917 70.92515382 5.84985467 90.42578125 23.15234375 C104.02694316 36.15916918 112.07362097 52.78781254 116 71 C116.18949219 71.80050781 116.37898438 72.60101563 116.57421875 73.42578125 C120.28992579 95.89046877 112.84082121 118.42888374 100.1875 136.8125 C89.01975307 151.27635864 76.0544357 160.67130479 59 167 C57.83464722 167.49052856 57.83464722 167.49052856 56.64575195 167.9909668 C45.19153348 172.35936072 32.29025185 171.23242986 20.25 171.125 C18.28125456 171.11494876 16.31250414 171.10582671 14.34375 171.09765625 C9.56227427 171.07753219 4.78150162 171.03835429 0 171 C0 161.76 0 152.52 0 143 C2.7946875 142.95101562 5.589375 142.90203125 8.46875 142.8515625 C11.19601478 142.7974464 13.92319668 142.7401808 16.65039062 142.68261719 C18.53574364 142.64449662 20.42116521 142.60961519 22.30664062 142.578125 C25.02759179 142.53210468 27.74807793 142.47417386 30.46875 142.4140625 C31.71924133 142.39673569 31.71924133 142.39673569 32.99499512 142.37905884 C49.22132915 141.97615729 62.4200185 134.89393565 73.625 123.5 C84.68353335 110.81464213 88.05783354 95.46466718 87 79 C84.99615002 64.18972695 76.90006781 51.59254533 65.66015625 42.00390625 C54.59583366 33.66531629 42.57912052 30.96894519 29.00390625 30.68359375 C27.75358864 30.6524221 27.75358864 30.6524221 26.47801208 30.62062073 C23.83958439 30.55572144 21.20106509 30.49652022 18.5625 30.4375 C16.76366276 30.39425794 14.96483446 30.35064192 13.16601562 30.30664062 C8.77743585 30.1994047 4.3887776 30.09988985 0 30 C0 20.1 0 10.2 0 0 Z "
     fill="#333434"
     transform="translate(351,127)"
     id="path6"
     style="filter:url(#filter1058)" />
  <path
     d="M0 0 C0.84433594 0.00322266 1.68867188 0.00644531 2.55859375 0.00976562 C3.86763672 0.02233398 3.86763672 0.02233398 5.203125 0.03515625 C6.09128906 0.03966797 6.97945313 0.04417969 7.89453125 0.04882812 C10.08079829 0.06058225 12.26692679 0.07701376 14.453125 0.09765625 C14.54436967 30.95226554 14.61516072 61.80684398 14.65738632 92.66155595 C14.66238916 96.30399325 14.66756645 99.94643029 14.67285156 103.58886719 C14.6739008 104.31401271 14.67495005 105.03915824 14.67603108 105.78627788 C14.69343771 117.52871138 14.72497679 129.27106657 14.76173618 141.01345362 C14.79913849 153.06166992 14.82135934 165.1098452 14.82947898 177.15811718 C14.83447561 183.92570768 14.84649619 190.69313486 14.87604523 197.46066666 C14.90316078 203.82833052 14.91157767 210.19574328 14.90555573 216.5634594 C14.90665768 218.90238623 14.91463424 221.24132132 14.9299469 223.58019829 C14.94981378 226.77074524 14.94507557 229.960341 14.93414307 233.15090942 C14.94579443 234.07893281 14.9574458 235.0069562 14.96945024 235.96310151 C14.90648449 242.74979204 13.30797798 245.7860268 8.890625 250.91015625 C5.35044686 253.83465124 0.69044454 253.60710466 -3.6796875 253.578125 C-8.53342802 252.76475976 -11.59707613 249.91982671 -14.546875 246.09765625 C-17.01797445 241.41965181 -16.83254167 236.96856294 -16.81430054 231.8117981 C-16.81883165 230.87324789 -16.82336276 229.93469768 -16.82803118 228.96770656 C-16.84069708 225.82103175 -16.83905339 222.67452953 -16.83740234 219.52783203 C-16.84338619 217.27246884 -16.8501914 215.0171077 -16.85775757 212.76174927 C-16.87543861 206.63366067 -16.88011382 200.50562791 -16.88138914 194.37751627 C-16.88328757 189.26311365 -16.89064441 184.14872405 -16.89773333 179.03432643 C-16.91309209 167.65823661 -16.91907053 156.28218137 -16.91772263 144.90608467 C-16.91764272 144.22374177 -16.9175628 143.54139887 -16.91748047 142.83837891 C-16.91739871 142.15520119 -16.91731695 141.47202347 -16.91723271 140.7681434 C-16.91641978 129.69597196 -16.93556005 118.62393654 -16.9637572 107.55180444 C-16.99249361 96.17802345 -17.00593092 84.80432944 -17.00456965 73.43050373 C-17.00405944 67.04694142 -17.00977524 60.66353308 -17.03092575 54.28000259 C-17.05027335 48.27666315 -17.05045619 42.27362511 -17.03589249 36.27027512 C-17.03379904 34.0672283 -17.03853704 31.86416278 -17.0506134 29.66114807 C-17.06603552 26.652904 -17.05677731 23.64570309 -17.04135132 20.63748169 C-17.05163844 19.76636407 -17.06192557 18.89524645 -17.07252443 17.99773133 C-17.00701717 12.21424183 -15.85385154 8.86831108 -12.546875 4.09765625 C-8.7428029 0.53133865 -5.08933149 -0.03438737 0 0 Z "
     fill="#FDFEFE"
     transform="translate(336.546875,126.90234375)"
     id="path8"
     style="filter:url(#filter1052)" />
  <path
     d="M0 0 C3.7288704 1.66418105 6.21556082 4.13964735 8.9375 7.125 C11.77112779 14.79246343 10.14999848 21.27852353 7.09765625 28.6328125 C3.97151048 36.42205806 1.04597463 44.26963241 -1.79296875 52.16796875 C-2.22047928 53.35605133 -2.64798981 54.54413391 -3.0884552 55.76821899 C-3.98815446 58.27141892 -4.8872202 60.77483512 -5.78518677 63.27865601 C-7.96902151 69.36770138 -10.16046529 75.45401057 -12.35130882 81.54053688 C-12.85225639 82.93234176 -13.35312208 84.32417612 -13.85390663 85.71603966 C-18.89179666 99.71805647 -23.97016254 113.70519287 -29.0625 127.6875 C-34.65548621 143.04650655 -40.23856918 158.40898795 -45.79548645 173.78108215 C-49.31772007 183.52449996 -52.84795898 193.26500078 -56.3815155 203.00431824 C-58.68291626 209.35163442 -60.97166911 215.70324957 -63.24539185 222.06053162 C-64.52834333 225.64190954 -65.8208113 229.2197979 -67.11578369 232.79684448 C-67.69591072 234.4063396 -68.27170519 236.01740433 -68.8427124 237.63015747 C-69.61298893 239.80458937 -70.39829634 241.97300484 -71.1875 244.140625 C-71.61417969 245.33204102 -72.04085937 246.52345703 -72.48046875 247.75097656 C-74.26856519 251.57423933 -75.90312913 254.10742203 -79 257 C-81.96378926 258.0414344 -84.88802349 258.6067655 -88 259 C-90.79515784 217.94096947 -87.02017172 186.34447678 -70.86962891 147.95068359 C-66.48467993 137.45929536 -62.67194229 126.75573441 -58.79803467 116.06790161 C-57.07724343 111.33797107 -55.32826317 106.61867905 -53.57983398 101.89891052 C-46.8089091 83.60853493 -40.25620659 65.24194882 -33.74609375 46.85742188 C-31.87244441 41.56828465 -29.97923959 36.28647512 -28.07562256 31.00805664 C-26.99740297 27.99273722 -25.94683097 24.96865183 -24.89697266 21.94335938 C-24.22020459 20.05037721 -23.54236092 18.15777914 -22.86328125 16.265625 C-22.57567429 15.41313171 -22.28806732 14.56063843 -21.991745 13.68231201 C-18.18972692 3.29261801 -11.00611833 -1.46638403 0 0 Z "
     fill="#FDFEFE"
     transform="translate(232,127)"
     id="path10"
     style="filter:url(#filter1046)" />
  <path
     d="M0 0 C5.02966292 1.74103716 8.15640903 4.57313008 11 9 C12.85432166 13.10358939 14.31092981 17.32814067 15.78125 21.58203125 C16.2308983 22.85221941 16.68177134 24.12197458 17.1337738 25.3913269 C18.09828984 28.10686488 19.05519405 30.82491469 20.006073 33.54525757 C21.51666966 37.86589196 23.04447315 42.18030261 24.57641602 46.4934082 C24.83435597 47.21967628 25.09229593 47.94594435 25.35805225 48.69422054 C25.88245694 50.17058188 26.40693005 51.64691891 26.93147087 53.12323189 C27.7266584 55.36283433 28.52026415 57.60299243 29.31361389 59.84324646 C34.3925993 74.17299022 39.65071514 88.43314659 44.9375 102.6875 C51.98990133 121.73324302 58.91867892 140.81752647 65.67749023 159.96948242 C65.97404007 160.80728745 66.2705899 161.64509247 66.5761261 162.50828552 C67.16253437 164.17479178 67.74254839 165.84356209 68.31608582 167.51454163 C69.78820086 171.76721732 71.3688226 175.90360946 73.20654297 180.01269531 C79.96504329 195.6409025 79.97934077 210.56961892 79.54931641 227.25146484 C79.46584644 230.84563197 79.43060215 234.44028899 79.390625 238.03515625 C79.30612644 245.0245817 79.17054747 252.01209781 79 259 C74.14132302 258.70847938 70.92195755 257.9112703 67.28826904 254.53268433 C65.03387259 251.85057524 63.91526834 248.79698881 62.7890625 245.53515625 C62.5057608 244.76349625 62.22245911 243.99183624 61.93057251 243.1967926 C60.93557689 240.4707644 59.9685944 237.73551401 59 235 C58.21081108 232.81700229 57.42003388 230.63457831 56.62792969 228.45263672 C54.34903382 222.15768218 52.09335292 215.85467725 49.8430481 209.54946899 C47.30531876 202.43910746 44.75767984 195.33229858 42.20703125 188.2265625 C41.81793611 187.14249713 41.81793611 187.14249713 41.42098045 186.03653145 C36.05567946 171.09590614 30.57382974 156.19987228 25.0625 141.3125 C18.51410859 123.62041328 12.07560449 105.89626732 5.79492188 88.10742188 C0.50455665 73.13077969 -4.92710676 58.20957415 -10.4375 43.3125 C-10.81338257 42.29539948 -11.18926514 41.27829895 -11.57653809 40.2303772 C-12.63132439 37.3781994 -13.68813603 34.52678401 -14.74609375 31.67578125 C-15.06192917 30.82294556 -15.37776459 29.97010986 -15.70317078 29.09143066 C-17.20690026 24.98443565 -17.20690026 24.98443565 -19 21 C-19.52113171 15.77159666 -19.64273534 11.35963246 -17.375 6.5625 C-12.03772766 0.80386405 -7.71715289 -1.12426148 0 0 Z "
     fill="#333434"
     transform="translate(64,127)"
     id="path12"
     style="filter:url(#filter1040)" />
  <path
     d="M0 0 C1.02298439 -0.01029488 1.02298439 -0.01029488 2.06663513 -0.02079773 C4.31107676 -0.0390315 6.55481692 -0.0352328 8.79931641 -0.02954102 C10.36724066 -0.03410513 11.93516291 -0.03941139 13.50308228 -0.04542542 C16.78648005 -0.05435025 20.06963452 -0.05194142 23.35302734 -0.04199219 C27.54842577 -0.03051464 31.74298098 -0.05069775 35.93826866 -0.07990932 C39.17606898 -0.09831106 42.41366881 -0.09797083 45.65150833 -0.0922718 C47.197579 -0.09211901 48.74366363 -0.09812844 50.2896843 -0.11056328 C65.24717637 -0.2139075 65.24717637 -0.2139075 71.02587891 4.40405273 C73.90070358 7.49502964 74.92401495 10.70373806 75.52587891 14.84155273 C74.70191845 20.71227099 73.10883596 24.73486991 68.42651367 28.48706055 C62.30128335 31.866685 54.85962558 30.99815993 48.05712891 30.97045898 C46.49206168 30.97570021 44.92699762 30.98197851 43.36193848 30.98924255 C40.09042437 30.99962149 36.81934593 30.99512122 33.54785156 30.98046875 C29.36801361 30.96327447 25.18954956 30.98679564 21.00986481 31.02195835 C17.78060911 31.04398076 14.55167984 31.04247949 11.32237244 31.03419304 C9.78188061 31.03337635 8.24136414 31.04018563 6.70094299 31.05496407 C-6.80184254 31.16467437 -6.80184254 31.16467437 -11.35107422 28.07568359 C-15.29916273 24.05446872 -16.67016425 20.49375605 -17.47412109 14.96655273 C-16.82107104 10.31357109 -15.07743358 6.92880272 -11.97412109 3.40405273 C-7.92116041 0.43027854 -4.98176196 0.02189942 0 0 Z "
     fill="#FEFEFE"
     transform="translate(226.97412109375,269.595947265625)"
     id="path14"
     style="filter:url(#filter1034)" />
</svg>
