<?xml version="1.0" encoding="UTF-8" standalone="no"?>
<svg
   version="1.1"
   width="512"
   height="513"
   id="svg16"
   sodipodi:docname="a-profiles.svg"
   inkscape:version="1.1.2 (0a00cf5339, 2022-02-04)"
   xmlns:inkscape="http://www.inkscape.org/namespaces/inkscape"
   xmlns:sodipodi="http://sodipodi.sourceforge.net/DTD/sodipodi-0.dtd"
   xmlns="http://www.w3.org/2000/svg"
   xmlns:svg="http://www.w3.org/2000/svg">
  <defs
     id="defs20">
    <filter
       inkscape:label="Opacity"
       style="color-interpolation-filters:sRGB;"
       id="filter316"
       x="0"
       y="0"
       width="1"
       height="1">
      <feColorMatrix
         values="1 0 0 0 0 0 1 0 0 0 0 0 1 0 0 0 0 0 1 -0 "
         result="colormatrix"
         id="feColorMatrix312" />
      <feComposite
         in2="colormatrix"
         operator="arithmetic"
         k2="1"
         result="composite"
         id="feComposite314" />
    </filter>
    <filter
       inkscape:label="Opacity"
       style="color-interpolation-filters:sRGB;"
       id="filter322"
       x="0"
       y="0"
       width="1"
       height="1">
      <feColorMatrix
         values="1 0 0 0 0 0 1 0 0 0 0 0 1 0 0 0 0 0 1 -0 "
         result="colormatrix"
         id="feColorMatrix318" />
      <feComposite
         in2="colormatrix"
         operator="arithmetic"
         k2="1"
         result="composite"
         id="feComposite320" />
    </filter>
    <filter
       inkscape:label="Opacity"
       style="color-interpolation-filters:sRGB;"
       id="filter328"
       x="0"
       y="0"
       width="1"
       height="1">
      <feColorMatrix
         values="1 0 0 0 0 0 1 0 0 0 0 0 1 0 0 0 0 0 1 -0 "
         result="colormatrix"
         id="feColorMatrix324" />
      <feComposite
         in2="colormatrix"
         operator="arithmetic"
         k2="1"
         result="composite"
         id="feComposite326" />
    </filter>
    <filter
       inkscape:label="Opacity"
       style="color-interpolation-filters:sRGB;"
       id="filter334"
       x="0"
       y="0"
       width="1"
       height="1">
      <feColorMatrix
         values="1 0 0 0 0 0 1 0 0 0 0 0 1 0 0 0 0 0 1 -0 "
         result="colormatrix"
         id="feColorMatrix330" />
      <feComposite
         in2="colormatrix"
         operator="arithmetic"
         k2="1"
         result="composite"
         id="feComposite332" />
    </filter>
    <filter
       inkscape:label="Opacity"
       style="color-interpolation-filters:sRGB;"
       id="filter340"
       x="0"
       y="0"
       width="1"
       height="1">
      <feColorMatrix
         values="1 0 0 0 0 0 1 0 0 0 0 0 1 0 0 0 0 0 1 -0 "
         result="colormatrix"
         id="feColorMatrix336" />
      <feComposite
         in2="colormatrix"
         operator="arithmetic"
         k2="1"
         result="composite"
         id="feComposite338" />
    </filter>
    <filter
       inkscape:label="Opacity"
       style="color-interpolation-filters:sRGB;"
       id="filter346"
       x="0"
       y="0"
       width="1"
       height="1">
      <feColorMatrix
         values="1 0 0 0 0 0 1 0 0 0 0 0 1 0 0 0 0 0 1 -0 "
         result="colormatrix"
         id="feColorMatrix342" />
      <feComposite
         in2="colormatrix"
         operator="arithmetic"
         k2="1"
         result="composite"
         id="feComposite344" />
    </filter>
    <filter
       inkscape:label="Opacity"
       style="color-interpolation-filters:sRGB;"
       id="filter352"
       x="0"
       y="0"
       width="1"
       height="1">
      <feColorMatrix
         values="1 0 0 0 0 0 1 0 0 0 0 0 1 0 0 0 0 0 1 -0 "
         result="colormatrix"
         id="feColorMatrix348" />
      <feComposite
         in2="colormatrix"
         operator="arithmetic"
         k2="1"
         result="composite"
         id="feComposite350" />
    </filter>
  </defs>
  <sodipodi:namedview
     id="namedview18"
     pagecolor="#ffffff"
     bordercolor="#666666"
     borderopacity="1.0"
     inkscape:pageshadow="2"
     inkscape:pageopacity="0.0"
     inkscape:pagecheckerboard="0"
     showgrid="false"
     inkscape:zoom="1.4015595"
     inkscape:cx="255.7865"
     inkscape:cy="254.71626"
     inkscape:window-width="1920"
     inkscape:window-height="1163"
     inkscape:window-x="0"
     inkscape:window-y="0"
     inkscape:window-maximized="1"
     inkscape:current-layer="svg16" />
  <path
     d="M0 0 C1.62281293 -0.00373909 3.24562406 -0.00834164 4.86843234 -0.01373065 C9.3175004 -0.02594422 13.76649316 -0.02570211 18.21557415 -0.02334189 C23.01805645 -0.02293331 27.82051475 -0.03397688 32.62298584 -0.04345703 C42.02838726 -0.06005924 51.43376361 -0.06556624 60.83917847 -0.06668179 C68.48619149 -0.06763268 76.13319626 -0.07174502 83.78020668 -0.07808304 C105.47007826 -0.0956937 127.15993006 -0.10492224 148.84980883 -0.10342209 C150.01874646 -0.10334218 151.18768409 -0.10326227 152.39204407 -0.10317993 C153.56241224 -0.10309817 154.73278041 -0.10301641 155.93861429 -0.10293217 C174.90214611 -0.10211943 193.86559847 -0.12125458 212.82910731 -0.14945666 C232.30971279 -0.17819869 251.79027953 -0.19199622 271.27090675 -0.19026911 C282.20414416 -0.18960564 293.13729829 -0.195079 304.07051659 -0.21662521 C313.38010277 -0.23485438 322.68956792 -0.23917009 331.99916425 -0.22560637 C336.74611472 -0.21908538 341.49283309 -0.21892808 346.23976135 -0.23631287 C350.59184203 -0.25208719 354.94350741 -0.24913569 359.29557822 -0.2317446 C360.86352959 -0.22868427 362.43151229 -0.23227039 363.99942669 -0.24346475 C383.14976293 -0.37105217 398.70563679 5.69356266 412.72871399 18.84164429 C426.63361892 32.61915443 436.48572155 53.76232099 437.29648 73.38474208 C437.29916286 75.06712994 437.29916286 75.06712994 437.30189991 76.78350544 C437.30635775 78.0842744 437.3108156 79.38504336 437.31540853 80.72522956 C437.31531924 82.16184637 437.31512941 83.59846317 437.31484985 85.03507996 C437.31815115 86.56669399 437.32187728 88.09830716 437.32599133 89.62991923 C437.33598948 93.83633106 437.33972461 98.04272861 437.34238064 102.24915063 C437.34629028 106.78725117 437.35586826 111.32534048 437.36459351 115.86343384 C437.38434093 126.822919 437.39442266 137.78240507 437.4033213 148.74190357 C437.40770766 153.90747721 437.41307362 159.07304983 437.41831017 164.23862267 C437.43532193 181.4187095 437.44981449 198.5987957 437.45705891 215.77888966 C437.4589687 220.23559889 437.46088904 224.69230812 437.46284485 229.14901733 C437.46332859 230.25666436 437.46381233 231.36431138 437.46431073 232.50552347 C437.472605 250.43506706 437.49793199 268.36454381 437.53042553 286.29405824 C437.5635399 304.71692378 437.58151169 323.13975541 437.58470315 341.56265086 C437.58686436 351.90025172 437.59555581 362.23775514 437.62116432 372.57532692 C437.64293132 381.38235484 437.65089238 390.18926166 437.64119754 398.99631343 C437.63666997 403.48452146 437.63844849 407.97247993 437.65795898 412.46065331 C437.67571505 416.58110305 437.6744935 420.70112349 437.65906169 424.82157858 C437.6567043 426.30083583 437.66091037 427.78012381 437.67289034 429.25933442 C437.7880314 444.43387692 434.79096673 458.53384327 428.16767883 472.26742554 C427.75002258 473.1659021 427.33236633 474.06437866 426.90205383 474.99008179 C418.3605999 492.04844524 404.04776411 504.61690601 386.16767883 511.26742554 C378.3464895 513.84409648 370.47748698 513.55261903 362.33535767 513.53485107 C360.71254474 513.53859016 359.08973361 513.54319271 357.46692532 513.54858172 C353.01785727 513.56079529 348.56886451 513.56055319 344.11978352 513.55819297 C339.31730121 513.55778438 334.51484291 513.56882796 329.71237183 513.57830811 C320.3069704 513.59491032 310.90159405 513.60041731 301.4961792 513.60153286 C293.84916617 513.60248375 286.2021614 513.60659609 278.55515099 513.61293411 C256.86527941 513.63054478 235.17542761 513.63977331 213.48554883 513.63827316 C212.3166112 513.63819325 211.14767358 513.63811334 209.9433136 513.63803101 C208.77294543 513.63794924 207.60257725 513.63786748 206.39674338 513.63778324 C187.43321156 513.6369705 168.4697592 513.65610566 149.50625036 513.68430774 C130.02564488 513.71304976 110.54507814 513.72684729 91.06445092 513.72512019 C80.1312135 513.72445672 69.19805938 513.72993007 58.26484108 513.75147629 C48.95525489 513.76970545 39.64578975 513.77402117 30.33619342 513.76045744 C25.58924295 513.75393645 20.84252457 513.75377916 16.09559631 513.77116394 C11.74351564 513.78693826 7.39185026 513.78398676 3.03977945 513.76659568 C1.47182808 513.76353534 -0.09615462 513.76712146 -1.66406902 513.77831583 C-21.30694188 513.90918473 -37.08711618 507.39791237 -51.29081726 493.84750366 C-65.51034239 479.2721526 -74.93416326 457.0558325 -74.96654224 436.75134563 C-74.97322901 434.80019219 -74.97322901 434.80019219 -74.98005086 432.80962151 C-74.97996158 431.37300471 -74.97977175 429.9363879 -74.97949219 428.49977112 C-74.98279349 426.96815708 -74.98651962 425.43654391 -74.99063367 423.90493184 C-75.00063181 419.69852002 -75.00436695 415.49212246 -75.00702298 411.28570044 C-75.01093261 406.7475999 -75.02051059 402.20951059 -75.02923584 397.67141724 C-75.04898327 386.71193207 -75.059065 375.75244601 -75.06796363 364.7929475 C-75.07234999 359.62737386 -75.07771596 354.46180124 -75.0829525 349.29622841 C-75.09996426 332.11614158 -75.11445682 314.93605538 -75.12170124 297.75596142 C-75.12361103 293.29925218 -75.12553138 288.84254295 -75.12748718 284.38583374 C-75.12797092 283.27818672 -75.12845466 282.17053969 -75.12895306 281.02932761 C-75.13724734 263.09978401 -75.16257432 245.17030726 -75.19506786 227.24079283 C-75.22818224 208.81792729 -75.24615402 190.39509567 -75.24934548 171.97220021 C-75.25150669 161.63459936 -75.26019815 151.29709593 -75.28580666 140.95952415 C-75.30757365 132.15249623 -75.31553472 123.34558942 -75.30583987 114.53853764 C-75.3013123 110.05032962 -75.30309082 105.56237115 -75.32260132 101.07419777 C-75.34035739 96.95374802 -75.33913583 92.83372758 -75.32370403 88.71327249 C-75.32134664 87.23401524 -75.32555271 85.75472727 -75.33753268 84.27551665 C-75.45267373 69.10097415 -72.45560907 55.0010078 -65.83232117 41.26742554 C-65.41466492 40.36894897 -64.99700867 39.47047241 -64.56669617 38.54476929 C-56.02524224 21.48640584 -41.71240644 8.91794506 -23.83232117 2.26742554 C-16.01113183 -0.3092454 -8.14212932 -0.01776795 0 0 Z "
     fill="#43EAB3"
     transform="translate(74.83232116699219,-0.267425537109375)"
     id="path2"
     style="filter:url(#filter352)" />
  <path
     d="M0 0 C36.46892751 0 66.50213049 0.27409622 92.75 25.375 C104.97879888 38.16853915 112.30149616 53.84479291 116 71 C116.18949219 71.80050781 116.37898438 72.60101563 116.57421875 73.42578125 C120.28992579 95.89046877 112.84082121 118.42888374 100.1875 136.8125 C89.01975307 151.27635864 76.0544357 160.67130479 59 167 C56.525 167.99 56.525 167.99 54 169 C36.23273584 171.96121069 18.01234145 171 0 171 C0 114.57 0 58.14 0 0 Z "
     fill="#43EAB3"
     transform="translate(351,127)"
     id="path4"
     style="filter:url(#filter346)" />
  <path
     d="M0 0 C5.63490544 -0.11626352 11.26547447 -0.21533073 16.90063477 -0.2746582 C18.80800651 -0.29944588 20.7152871 -0.33328709 22.62231445 -0.37719727 C48.35232653 -0.95379917 70.92515382 5.84985467 90.42578125 23.15234375 C104.02694316 36.15916918 112.07362097 52.78781254 116 71 C116.18949219 71.80050781 116.37898438 72.60101563 116.57421875 73.42578125 C120.28992579 95.89046877 112.84082121 118.42888374 100.1875 136.8125 C89.01975307 151.27635864 76.0544357 160.67130479 59 167 C57.83464722 167.49052856 57.83464722 167.49052856 56.64575195 167.9909668 C45.19153348 172.35936072 32.29025185 171.23242986 20.25 171.125 C18.28125456 171.11494876 16.31250414 171.10582671 14.34375 171.09765625 C9.56227427 171.07753219 4.78150162 171.03835429 0 171 C0 161.76 0 152.52 0 143 C2.7946875 142.95101562 5.589375 142.90203125 8.46875 142.8515625 C11.19601478 142.7974464 13.92319668 142.7401808 16.65039062 142.68261719 C18.53574364 142.64449662 20.42116521 142.60961519 22.30664062 142.578125 C25.02759179 142.53210468 27.74807793 142.47417386 30.46875 142.4140625 C31.71924133 142.39673569 31.71924133 142.39673569 32.99499512 142.37905884 C49.22132915 141.97615729 62.4200185 134.89393565 73.625 123.5 C84.68353335 110.81464213 88.05783354 95.46466718 87 79 C84.99615002 64.18972695 76.90006781 51.59254533 65.66015625 42.00390625 C54.59583366 33.66531629 42.57912052 30.96894519 29.00390625 30.68359375 C27.75358864 30.6524221 27.75358864 30.6524221 26.47801208 30.62062073 C23.83958439 30.55572144 21.20106509 30.49652022 18.5625 30.4375 C16.76366276 30.39425794 14.96483446 30.35064192 13.16601562 30.30664062 C8.77743585 30.1994047 4.3887776 30.09988985 0 30 C0 20.1 0 10.2 0 0 Z "
     fill="#333434"
     transform="translate(351,127)"
     id="path6"
     style="filter:url(#filter340)" />
  <path
     d="M0 0 C0.84433594 0.00322266 1.68867188 0.00644531 2.55859375 0.00976562 C3.86763672 0.02233398 3.86763672 0.02233398 5.203125 0.03515625 C6.09128906 0.03966797 6.97945313 0.04417969 7.89453125 0.04882812 C10.08079829 0.06058225 12.26692679 0.07701376 14.453125 0.09765625 C14.54436967 30.95226554 14.61516072 61.80684398 14.65738632 92.66155595 C14.66238916 96.30399325 14.66756645 99.94643029 14.67285156 103.58886719 C14.6739008 104.31401271 14.67495005 105.03915824 14.67603108 105.78627788 C14.69343771 117.52871138 14.72497679 129.27106657 14.76173618 141.01345362 C14.79913849 153.06166992 14.82135934 165.1098452 14.82947898 177.15811718 C14.83447561 183.92570768 14.84649619 190.69313486 14.87604523 197.46066666 C14.90316078 203.82833052 14.91157767 210.19574328 14.90555573 216.5634594 C14.90665768 218.90238623 14.91463424 221.24132132 14.9299469 223.58019829 C14.94981378 226.77074524 14.94507557 229.960341 14.93414307 233.15090942 C14.94579443 234.07893281 14.9574458 235.0069562 14.96945024 235.96310151 C14.90648449 242.74979204 13.30797798 245.7860268 8.890625 250.91015625 C5.35044686 253.83465124 0.69044454 253.60710466 -3.6796875 253.578125 C-8.53342802 252.76475976 -11.59707613 249.91982671 -14.546875 246.09765625 C-17.01797445 241.41965181 -16.83254167 236.96856294 -16.81430054 231.8117981 C-16.81883165 230.87324789 -16.82336276 229.93469768 -16.82803118 228.96770656 C-16.84069708 225.82103175 -16.83905339 222.67452953 -16.83740234 219.52783203 C-16.84338619 217.27246884 -16.8501914 215.0171077 -16.85775757 212.76174927 C-16.87543861 206.63366067 -16.88011382 200.50562791 -16.88138914 194.37751627 C-16.88328757 189.26311365 -16.89064441 184.14872405 -16.89773333 179.03432643 C-16.91309209 167.65823661 -16.91907053 156.28218137 -16.91772263 144.90608467 C-16.91764272 144.22374177 -16.9175628 143.54139887 -16.91748047 142.83837891 C-16.91739871 142.15520119 -16.91731695 141.47202347 -16.91723271 140.7681434 C-16.91641978 129.69597196 -16.93556005 118.62393654 -16.9637572 107.55180444 C-16.99249361 96.17802345 -17.00593092 84.80432944 -17.00456965 73.43050373 C-17.00405944 67.04694142 -17.00977524 60.66353308 -17.03092575 54.28000259 C-17.05027335 48.27666315 -17.05045619 42.27362511 -17.03589249 36.27027512 C-17.03379904 34.0672283 -17.03853704 31.86416278 -17.0506134 29.66114807 C-17.06603552 26.652904 -17.05677731 23.64570309 -17.04135132 20.63748169 C-17.05163844 19.76636407 -17.06192557 18.89524645 -17.07252443 17.99773133 C-17.00701717 12.21424183 -15.85385154 8.86831108 -12.546875 4.09765625 C-8.7428029 0.53133865 -5.08933149 -0.03438737 0 0 Z "
     fill="#FDFEFE"
     transform="translate(336.546875,126.90234375)"
     id="path8"
     style="filter:url(#filter334)" />
  <path
     d="m 232,385.69413 c 3.72887,-1.66418 6.21556,-4.13965 8.9375,-7.125 2.83363,-7.66746 1.2125,-14.15352 -1.83984,-21.50781 -3.12615,-7.78925 -6.05169,-15.63682 -8.89063,-23.53516 -0.42751,-1.18808 -0.85502,-2.37617 -1.29549,-3.60025 -0.89969,-2.5032 -1.79876,-5.00662 -2.69673,-7.51044 -2.18383,-6.08904 -4.37528,-12.17535 -6.56612,-18.26188 -0.50095,-1.3918 -1.00181,-2.78364 -1.5026,-4.1755 -5.03789,-14.00202 -10.11625,-27.98915 -15.20859,-41.97146 -5.59299,-15.35901 -11.17607,-30.72149 -16.73299,-46.09358 -3.52223,-9.74342 -7.05247,-19.48392 -10.58603,-29.22324 -2.3014,-6.34732 -4.59015,-12.69893 -6.86387,-19.05621 -1.28295,-3.58138 -2.57542,-7.15927 -3.87039,-10.73632 -0.58013,-1.60949 -1.15593,-3.22056 -1.72693,-4.83331 -0.77028,-2.17443 -1.55559,-4.34285 -2.34479,-6.51047 -0.42668,-1.19141 -0.85336,-2.38283 -1.29297,-3.61035 -1.7881,-3.82326 -3.42266,-6.35644 -6.51953,-9.24902 -2.96379,-1.04144 -5.88802,-1.60677 -9,-2 -2.79516,41.05903 0.97983,72.65552 17.13037,111.04932 4.38495,10.49138 8.19769,21.19494 12.0716,31.88278 1.72079,4.72993 3.46977,9.44922 5.2182,14.16899 6.77092,18.29037 13.32362,36.65696 19.83374,55.04149 1.87365,5.28913 3.76685,10.57094 5.67047,15.84936 1.07822,3.01532 2.12879,6.03941 3.17865,9.0647 0.67677,1.89298 1.35461,3.78558 2.03369,5.67773 0.28761,0.8525 0.57521,1.70499 0.87153,2.58332 3.80202,10.38969 10.98563,15.14869 21.99175,13.68231 z"
     fill="#fdfefe"
     id="path10"
     style="filter:url(#filter328)" />
  <path
     d="m 64,385.69413 c 5.029663,-1.74104 8.156409,-4.57313 11,-9 1.854322,-4.10359 3.31093,-8.32814 4.78125,-12.58203 0.449648,-1.27019 0.900521,-2.53995 1.352524,-3.8093 0.964516,-2.71554 1.92142,-5.43359 2.872299,-8.15393 1.510597,-4.32063 3.0384,-8.63504 4.570343,-12.94815 0.25794,-0.72627 0.51588,-1.45254 0.781636,-2.20081 0.524405,-1.47636 1.048878,-2.9527 1.573419,-4.42901 0.795187,-2.23961 1.588793,-4.47976 2.382143,-6.72002 5.078985,-14.32974 10.337106,-28.5899 15.623886,-42.84425 7.0524,-19.04574 13.98118,-38.13003 20.73999,-57.28198 0.29655,-0.83781 0.5931,-1.67561 0.89864,-2.53881 0.5864,-1.6665 1.16642,-3.33527 1.73996,-5.00625 1.47211,-4.25268 3.05273,-8.38907 4.89045,-12.49816 6.7585,-15.6282 6.7728,-30.55692 6.34278,-47.23877 -0.0835,-3.59416 -0.11872,-7.18882 -0.1587,-10.78369 -0.0845,-6.98942 -0.22007,-13.97694 -0.39062,-20.96484 -4.85868,0.29152 -8.07804,1.08873 -11.71173,4.46731 -2.2544,2.68211 -3.373,5.7357 -4.49921,8.99753 -0.2833,0.77166 -0.5666,1.54332 -0.85849,2.33837 -0.99499,2.72602 -1.96198,5.46127 -2.93057,8.19679 -0.78919,2.183 -1.57997,4.36542 -2.37207,6.54736 -2.2789,6.29496 -4.53458,12.59796 -6.78488,18.90317 -2.53773,7.11036 -5.08537,14.21717 -7.63602,21.32291 -0.38909,1.08406 -0.38909,1.08406 -0.78605,2.19003 -5.3653,14.94062 -10.84715,29.83666 -16.35848,44.72403 -6.548391,17.69209 -12.986896,35.41623 -19.267578,53.20508 -5.290365,14.97664 -10.722029,29.89784 -16.232422,44.79492 -0.375883,1.0171 -0.751765,2.0342 -1.139038,3.08212 -1.054786,2.85218 -2.111598,5.70359 -3.169556,8.5546 -0.315835,0.85283 -0.631671,1.70567 -0.957077,2.58435 C 46.7931,360.70969 46.7931,360.70969 45,364.69413 c -0.521132,5.2284 -0.642735,9.64037 1.625,14.4375 5.337272,5.75863 9.657847,7.68676 17.375,6.5625 z"
     fill="#333434"
     id="path12"
     style="filter:url(#filter322)" />
  <path
     d="m 160.01512,269.59595 c 2.09248,-0.0103 2.09248,-0.0103 4.22722,-0.0208 4.5909,-0.0182 9.18038,-0.0144 13.7714,-0.009 3.20711,-0.005 6.41423,-0.01 9.62134,-0.0159 6.71605,-0.009 13.43161,-0.007 20.14764,0.003 8.58151,0.0115 17.16127,-0.009 25.74256,-0.0379 6.62277,-0.0184 13.24514,-0.0181 19.868,-0.0124 3.16242,1.5e-4 6.32486,-0.006 9.4872,-0.0183 30.59489,-0.10261 34.59489,-0.10261 46.41497,4.51535 5.88032,3.09098 3.97347,6.29969 5.20455,10.4375 -1.68537,5.87072 -0.94395,9.89332 -10.52145,13.64551 -12.52889,3.37962 -31.75046,2.5111 -45.66468,2.4834 -3.20128,0.005 -6.40254,0.0115 -9.6038,0.0188 -6.69173,0.0104 -13.38258,0.006 -20.07429,-0.009 -8.54968,-0.0172 -17.09654,0.006 -25.64589,0.0415 -6.60531,0.022 -13.20995,0.0205 -19.81536,0.0122 -3.151,-8.2e-4 -6.30205,0.006 -9.45293,0.0208 -27.61935,0.10971 -31.61935,0.10971 -40.9246,-2.97928 -8.07564,-4.02121 -6.87997,-7.58193 -8.52443,-13.10913 1.33579,-4.65298 0.90232,-8.03775 7.25001,-11.5625 8.29015,-2.97377 18.30257,-3.38215 28.49254,-3.40405 z"
     fill="#fefefe"
     id="path14"
     style="stroke-width:1.43019;filter:url(#filter316)"
     sodipodi:nodetypes="cccccccccccccccccccccc" />
</svg>
